<?xml version="1.0" standalone="no"?>
<!DOCTYPE svg PUBLIC "-//W3C//DTD SVG 20010904//EN"
 "http://www.w3.org/TR/2001/REC-SVG-20010904/DTD/svg10.dtd">
<svg version="1.0" xmlns="http://www.w3.org/2000/svg"
 width="640.000000pt" height="640.000000pt" viewBox="0 0 640.000000 640.000000"
 preserveAspectRatio="xMidYMid meet">

<g transform="translate(0.000000,640.000000) scale(0.100000,-0.100000)"
fill="#000000" stroke="none">
<path d="M616 4564 c-3 -9 -6 -26 -6 -39 0 -18 -7 -24 -34 -29 -44 -8 -53 -20
-61 -81 -6 -36 -17 -60 -41 -88 -19 -20 -34 -45 -34 -55 0 -22 194 -250 225
-264 14 -6 22 -15 19 -20 -6 -9 0 -17 158 -234 l96 -130 11 -200 c20 -346 51
-586 83 -648 49 -94 307 -362 454 -473 287 -214 617 -355 1014 -432 170 -34
234 -40 505 -51 398 -17 810 7 1100 65 665 133 1095 359 1380 725 32 41 75 93
95 116 100 110 272 438 346 660 26 77 34 118 34 172 l0 71 -59 74 c-71 89 -99
102 -205 95 -68 -5 -75 -7 -147 -60 -349 -258 -868 -531 -1275 -671 -237 -81
-384 -112 -671 -138 -158 -15 -532 -6 -643 15 -237 44 -728 224 -994 365 -493
260 -785 522 -887 793 -18 48 -40 80 -98 141 -41 43 -89 100 -106 125 -18 28
-55 63 -91 87 -34 22 -79 59 -102 83 -44 45 -57 51 -66 26z m523 -653 c207
-304 642 -589 1254 -822 543 -206 889 -250 1372 -173 526 84 1125 335 1674
703 96 64 180 120 187 126 10 7 25 -3 60 -43 58 -66 72 -74 164 -87 l75 -11
-2 -60 c-4 -165 -223 -632 -374 -798 -30 -33 -77 -90 -104 -126 -354 -467
-1057 -736 -2038 -779 -678 -30 -1248 91 -1702 362 -214 127 -389 279 -545
473 -90 112 -99 127 -114 193 -24 106 -45 315 -51 511 -9 267 1 236 -136 421
-65 89 -119 163 -119 165 0 2 9 8 20 14 15 8 46 3 137 -24 64 -20 119 -34 121
-32 2 2 6 45 9 96 l6 92 32 -70 c18 -38 51 -97 74 -131z"/>
</g>
</svg>
